<?xml version="1.0" encoding="UTF-8"?>
<svg version="1.1" xmlns="http://www.w3.org/2000/svg" width="300" height="300">
<path d="M0 0 C99 0 198 0 300 0 C300 99 300 198 300 300 C201 300 102 300 0 300 C0 201 0 102 0 0 Z " fill="#000000" transform="translate(0,0)"/>
<path d="M0 0 C0.6578096 -0.00335861 1.3156192 -0.00671722 1.99336243 -0.01017761 C4.15282111 -0.01962083 6.31220168 -0.02162755 8.47167969 -0.02270508 C9.98614533 -0.0259229 11.50061067 -0.02928736 13.01507568 -0.03279114 C16.18567627 -0.03876631 19.35624966 -0.04063276 22.52685547 -0.04003906 C26.56586492 -0.03993768 30.60469764 -0.05357245 34.64366531 -0.07081127 C37.77173647 -0.08199715 40.89976583 -0.08395624 44.02785492 -0.08342934 C45.51561846 -0.08460022 47.00338341 -0.08897117 48.49112701 -0.0967617 C65.56147617 -0.17776552 80.46220398 2.69353136 93.18652344 14.99291992 C102.88621696 25.66064673 108.20290208 37.69085896 108.32055664 52.13769531 C108.32712784 52.81019318 108.33369904 53.48269104 108.34046936 54.17556763 C108.36006172 56.38551987 108.37183627 58.59540446 108.38183594 60.80541992 C108.38591146 61.56700346 108.38998699 62.328587 108.39418602 63.11324883 C108.41499177 67.14825029 108.42931443 71.18321835 108.4387207 75.21826172 C108.44974514 79.3513121 108.4841144 83.48381822 108.5238924 87.61667728 C108.55024931 90.82464991 108.55842949 94.03249683 108.56200218 97.24056816 C108.56682281 98.76216729 108.57830468 100.28376257 108.59704018 101.80525398 C108.79511479 118.9633802 104.39283434 133.23099466 92.52636719 145.97729492 C79.58815926 157.74894312 64.7800456 160.78317686 47.76464844 160.64135742 C46.22013786 160.64151293 44.6756269 160.64301049 43.13111877 160.64576721 C39.91641689 160.6471408 36.70216679 160.63476867 33.48754883 160.61181641 C29.40057677 160.58341062 25.31435207 160.58618963 21.22732449 160.59890652 C18.04508764 160.60591437 14.86301868 160.59801711 11.6808033 160.58564949 C10.17516795 160.58118607 8.66951424 160.58075257 7.16387749 160.58471489 C-9.90956541 160.60863037 -24.08852557 157.31215943 -36.79394531 145.33276367 C-46.26475197 135.28796874 -51.93973811 123.09033895 -52.01757812 109.25048828 C-52.02254303 108.57653015 -52.02750793 107.90257202 -52.03262329 107.20819092 C-52.04717373 104.98798581 -52.05403721 102.7678523 -52.05957031 100.54760742 C-52.06239769 99.78385866 -52.06522507 99.0201099 -52.06813812 98.23321724 C-52.08310689 94.18639915 -52.09234921 90.13961646 -52.09667969 86.09277344 C-52.1021414 81.94288077 -52.12612699 77.79332001 -52.15465164 73.64353085 C-52.17342156 70.42701829 -52.17849132 67.21058312 -52.18001556 63.99402046 C-52.18301357 62.4660315 -52.19094372 60.93804295 -52.20420074 59.41010857 C-52.34189213 42.31134661 -49.09360977 27.98771083 -37.04394531 15.20776367 C-26.63386397 5.39254412 -14.3027802 0.04611324 0 0 Z " fill="#2EFDFD" transform="translate(121.8564453125,69.854736328125)"/>
<path d="M0 0 C1.52781125 -0.00779279 3.05561824 -0.01646595 4.5834198 -0.02597046 C7.77491337 -0.04082699 10.96596423 -0.04036355 14.1574707 -0.02978516 C18.21589239 -0.01821605 22.27248237 -0.05203458 26.33060169 -0.0984745 C29.48372205 -0.12816915 32.6364126 -0.12966317 35.78964806 -0.12345505 C37.28416248 -0.12447093 38.77870439 -0.13474524 40.27308083 -0.15507889 C50.85691083 -0.28142162 59.80940551 1.17040105 68.1497345 8.22494507 C78.85502765 19.66424756 76.23046875 30.99464405 76.23046875 46.6015625 C29.20546875 47.0965625 29.20546875 47.0965625 -18.76953125 47.6015625 C9.58729575 55.94916374 9.58729575 55.94916374 37.95361328 64.2644043 C43.44897461 65.89221191 43.44897461 65.89221191 46.02462769 66.65925598 C47.81526112 67.1894798 49.60762438 67.71388379 51.40133667 68.2335968 C54.12617941 69.02434574 56.84487282 69.83368909 59.56298828 70.6472168 C60.35644716 70.87280368 61.14990604 71.09839056 61.96740913 71.33081341 C68.31431003 73.26554016 72.46796402 75.9578054 76.23046875 81.6015625 C77.77329915 91.36199484 74.2426754 97.85505505 69.16796875 105.8515625 C63.33706247 112.18169403 54.99808538 114.92854687 46.6328125 115.37792969 C43.80980519 115.43901311 40.99133393 115.42529447 38.16796875 115.3984375 C36.64444423 115.40249276 35.12092354 115.40832702 33.59741211 115.41583252 C30.42361028 115.42461542 27.25083023 115.41202912 24.07714844 115.38378906 C20.04223773 115.34960353 16.00972246 115.36932118 11.97489929 115.40522385 C8.8345793 115.42707626 5.69481202 115.41992781 2.55447388 115.40445709 C1.06836654 115.40050143 -0.41779374 115.40519856 -1.90383911 115.41933441 C-12.43710925 115.49758298 -21.39193634 113.99388672 -29.68920898 106.97845459 C-37.8835695 98.21854015 -38.39555808 88.27288056 -38.37109375 76.83203125 C-38.37888654 75.30422 -38.3875597 73.77641301 -38.39706421 72.24861145 C-38.41192074 69.05711788 -38.4114573 65.86606702 -38.40087891 62.67456055 C-38.3893098 58.61613886 -38.42312833 54.55954888 -38.46956825 50.50142956 C-38.4992629 47.3483092 -38.50075692 44.19561865 -38.4945488 41.04238319 C-38.49556468 39.54786877 -38.50583899 38.05332686 -38.52617264 36.55895042 C-38.65251537 25.97512042 -37.2006927 17.02262574 -30.14614868 8.68229675 C-21.38824699 0.4863508 -11.43973453 -0.02446195 0 0 Z " fill="#000101" transform="translate(130.76953125,92.3984375)"/>
<path d="M0 0 C1.51017825 -0.00135038 3.02035606 -0.00329401 4.53053284 -0.00579834 C7.68323946 -0.00873297 10.83583211 -0.00450641 13.98852539 0.00488281 C18.00392726 0.01626653 22.01906136 0.00971419 26.03445339 -0.00226212 C29.14966298 -0.00953424 32.26481046 -0.00716822 35.38002205 -0.00200653 C36.85940649 -0.00068428 38.3387968 -0.00226706 39.81817436 -0.00696564 C56.84576135 -0.04918617 71.73237935 2.84755354 84.421875 15.11328125 C91.90014246 23.33788279 98.65906546 33.56698535 98.69140625 45.015625 C98.61335267 46.43397008 98.51963114 47.85212168 98.37890625 49.265625 C96.39890625 50.255625 94.41890625 51.245625 92.37890625 52.265625 C93.03890625 52.265625 93.69890625 52.265625 94.37890625 52.265625 C94.04890625 52.925625 93.71890625 53.585625 93.37890625 54.265625 C92.71890625 53.935625 92.05890625 53.605625 91.37890625 53.265625 C91.37890625 52.605625 91.37890625 51.945625 91.37890625 51.265625 C89.06890625 51.265625 86.75890625 51.265625 84.37890625 51.265625 C82.96513284 48.62658129 82.0065049 46.19441871 81.37890625 43.265625 C80.45722656 43.37132812 79.53554687 43.47703125 78.5859375 43.5859375 C75.37890625 43.265625 75.37890625 43.265625 73.578125 41.0703125 C72.82982422 39.62011719 72.82982422 39.62011719 72.06640625 38.140625 C67.83765406 30.85516946 62.30211305 26.96660091 54.37890625 24.265625 C51.13075095 23.93761635 51.13075095 23.93761635 47.57592773 23.94335938 C46.5796209 23.92846466 46.5796209 23.92846466 45.56318665 23.91326904 C43.3754147 23.88417155 41.18793333 23.87044254 39 23.859375 C38.2472838 23.85372025 37.4945676 23.84806549 36.71904182 23.84223938 C32.73056778 23.81230315 28.74223734 23.79381796 24.75366211 23.78515625 C20.66385959 23.77423258 16.57540432 23.72626601 12.486022 23.66921234 C9.31580483 23.63166585 6.1459016 23.62153282 2.97548103 23.6184845 C1.4697647 23.61248955 -0.03595004 23.59663208 -1.54144478 23.57011414 C-11.37246978 23.4093995 -19.35620128 24.4999563 -27.62109375 30.265625 C-35.83907691 38.55444162 -37.56340973 48.39597712 -38.18359375 59.640625 C-38.22677734 60.37667969 -38.26996094 61.11273438 -38.31445312 61.87109375 C-38.41953174 63.66910568 -38.52071468 65.46734458 -38.62109375 67.265625 C-39.28109375 66.935625 -39.94109375 66.605625 -40.62109375 66.265625 C-40.62109375 65.275625 -40.62109375 64.285625 -40.62109375 63.265625 C-41.23984375 63.760625 -41.85859375 64.255625 -42.49609375 64.765625 C-44.62109375 66.265625 -44.62109375 66.265625 -46.62109375 66.265625 C-46.72421875 65.646875 -46.82734375 65.028125 -46.93359375 64.390625 C-47.49634748 61.90036016 -47.49634748 61.90036016 -50.62109375 60.265625 C-51.61109375 60.265625 -52.60109375 60.265625 -53.62109375 60.265625 C-53.95109375 59.935625 -54.28109375 59.605625 -54.62109375 59.265625 C-54.95327567 62.26822017 -54.95327567 62.26822017 -53.12109375 63.953125 C-52.62609375 64.38625 -52.13109375 64.819375 -51.62109375 65.265625 C-52.61109375 65.265625 -53.60109375 65.265625 -54.62109375 65.265625 C-56.29209352 65.57650868 -57.95980912 65.90642832 -59.62109375 66.265625 C-59.76846122 62.01600072 -59.85585091 57.76704787 -59.93359375 53.515625 C-59.97548828 52.32839844 -60.01738281 51.14117187 -60.06054688 49.91796875 C-60.24267102 36.58648108 -55.36931793 26.20611142 -46.62109375 16.265625 C-32.90234434 2.879956 -18.52711761 -0.0587498 0 0 Z " fill="#93FDFD" transform="translate(130.62109375,69.734375)"/>
<path d="M0 0 C0.495 3.465 0.495 3.465 1 7 C4.04913228 8.01111093 4.04913228 8.01111093 7 7 C7 7.66 7 8.32 7 9 C7.66 9 8.32 9 9 9 C9 9.66 9 10.32 9 11 C10.15811388 9.94729537 10.15811388 9.94729537 11 8 C13.5625 7.375 13.5625 7.375 16 7 C16.33 5.68 16.66 4.36 17 3 C17 26.43 17 49.86 17 74 C16.67 74 16.34 74 16 74 C15.67 70.04 15.34 66.08 15 62 C13.68 62 12.36 62 11 62 C10.67 61.34 10.34 60.68 10 60 C9.34 60.99 8.68 61.98 8 63 C6 62 6 62 5 61 C5 62.32 5 63.64 5 65 C3.515 64.505 3.515 64.505 2 64 C1.67 63.34 1.34 62.68 1 62 C-1.88085938 62.29296875 -1.88085938 62.29296875 -4.76171875 62.5859375 C-7 62 -7 62 -8.96972656 59.19824219 C-12.57901634 54.75216165 -17.3868797 53.77347271 -22.72265625 52.2421875 C-23.81030777 51.91233856 -24.89795929 51.58248962 -26.01856995 51.24264526 C-29.67311294 50.14073591 -33.3359499 49.06983921 -37 48 C-38.99022572 47.40988074 -40.97958165 46.8168973 -42.96883202 46.2234993 C-53.59423545 43.05397253 -64.23430914 39.9343245 -74.87866211 36.82910156 C-78.46875014 35.78143966 -82.05696329 34.72755997 -85.64406013 33.66970444 C-86.99536666 33.27257333 -88.34738631 32.87786014 -89.70013237 32.48566055 C-91.56669206 31.94438643 -93.43075603 31.39452788 -95.29467773 30.84423828 C-96.35178452 30.53527618 -97.4088913 30.22631409 -98.49803162 29.9079895 C-101 29 -101 29 -103 27 C-70.99 27 -38.98 27 -6 27 C-6.495 14.13 -6.495 14.13 -7 1 C-4.53721199 -0.231394 -2.7204945 -0.07159196 0 0 Z " fill="#61FEFE" transform="translate(213,112)"/>
<path d="M0 0 C1.98 0.495 1.98 0.495 4 1 C-5.75607008 16.43817683 -16.87082619 25.87341169 -35 30 C-40.4676099 30.53075917 -45.89380671 30.5418108 -51.37890625 30.49609375 C-52.92341683 30.49624926 -54.46792779 30.49774682 -56.01243591 30.50050354 C-59.2271378 30.50187713 -62.44138789 30.489505 -65.65600586 30.46655273 C-69.74297792 30.43814694 -73.82920262 30.44092596 -77.9162302 30.45364285 C-81.09846705 30.4606507 -84.28053601 30.45275344 -87.46275139 30.44038582 C-88.96838674 30.4359224 -90.47404044 30.4354889 -91.9796772 30.43945122 C-109.70083007 30.46427397 -123.11521132 26.75578101 -136.41796875 14.734375 C-138 13 -138 13 -138 11 C-137.01 11 -136.02 11 -135 11 C-135 11.66 -135 12.32 -135 13 C-134.34 12.67 -133.68 12.34 -133 12 C-133.33 11.34 -133.66 10.68 -134 10 C-130.125 11.875 -130.125 11.875 -129 13 C-128.01 13 -127.02 13 -126 13 C-125.67 13.99 -125.34 14.98 -125 16 C-124.42636719 15.85433594 -123.85273437 15.70867187 -123.26171875 15.55859375 C-121.81016614 15.20009285 -120.35453984 14.85749581 -118.89453125 14.53515625 C-116.9145258 14.08566158 -114.95585315 13.54507383 -113 13 C-112.67 12.34 -112.34 11.68 -112 11 C-111.01 11.33 -110.02 11.66 -109 12 C-109.66 13.65 -110.32 15.3 -111 17 C-110.01 17.33 -109.02 17.66 -108 18 C-108.33 16.68 -108.66 15.36 -109 14 C-107.88625 14.33 -106.7725 14.66 -105.625 15 C-102.30540283 16.088643 -102.30540283 16.088643 -100 16 C-99.34 15.34 -98.68 14.68 -98 14 C-96.125 14.3125 -96.125 14.3125 -94 15 C-93.2575 15.185625 -92.515 15.37125 -91.75 15.5625 C-91.1725 15.706875 -90.595 15.85125 -90 16 C-90 15.34 -90 14.68 -90 14 C-88 15 -88 15 -86.1875 16.125 C-83.42072793 17.23170883 -81.85960955 16.60202306 -79 16 C-78.34 16.66 -77.68 17.32 -77 18 C-74.89179203 17.6814823 -74.89179203 17.6814823 -73 17 C-73.495 15.515 -73.495 15.515 -74 14 C-74.66 14 -75.32 14 -76 14 C-76 13.34 -76 12.68 -76 12 C-73.03 12.495 -73.03 12.495 -70 13 C-70 13.99 -70 14.98 -70 16 C-69.67 15.67 -69.34 15.34 -69 15 C-65.44444444 14 -65.44444444 14 -64 14 C-63.505 14.99 -63.505 14.99 -63 16 C-62.5875 15.484375 -62.175 14.96875 -61.75 14.4375 C-60 13 -60 13 -57.9375 13.1875 C-56 14 -56 14 -54 16 C-53.2575 15.34 -52.515 14.68 -51.75 14 C-49 12 -49 12 -45 12 C-45 12.66 -45 13.32 -45 14 C-44.01 14 -43.02 14 -42 14 C-42 14.99 -42 15.98 -42 17 C-41.01 16.67 -40.02 16.34 -39 16 C-38.505 18.97 -38.505 18.97 -38 22 C-36.68 21.67 -35.36 21.34 -34 21 C-33.505 21.99 -33.505 21.99 -33 23 C-32.01 21.515 -32.01 21.515 -31 20 C-28.375 19.8125 -28.375 19.8125 -26 20 C-25.505 18.515 -25.505 18.515 -25 17 C-24.34 17.33 -23.68 17.66 -23 18 C-23 18.66 -23 19.32 -23 20 C-22.34 20 -21.68 20 -21 20 C-21 19.34 -21 18.68 -21 18 C-19.906875 17.855625 -18.81375 17.71125 -17.6875 17.5625 C-14.06877013 17.11711896 -14.06877013 17.11711896 -11 16 C-10.67 15.01 -10.34 14.02 -10 13 C-10.66 13.66 -11.32 14.32 -12 15 C-13.8125 15.8125 -13.8125 15.8125 -16 16 C-18.75 14.5625 -18.75 14.5625 -21 13 C-20.505 14.485 -20.505 14.485 -20 16 C-21.32 15.67 -22.64 15.34 -24 15 C-24.495 12.03 -24.495 12.03 -25 9 C-23.35 9 -21.7 9 -20 9 C-19.67 8.34 -19.34 7.68 -19 7 C-16.2160817 8.39195915 -16.02101003 10.15575779 -15 13 C-15 11.35 -15 9.7 -15 8 C-14.34 7.67 -13.68 7.34 -13 7 C-13 8.32 -13 9.64 -13 11 C-12.01 10.67 -11.02 10.34 -10 10 C-9.67 9.34 -9.34 8.68 -9 8 C-7.35 8.33 -5.7 8.66 -4 9 C-3.67 8.01 -3.34 7.02 -3 6 C-2.34 6 -1.68 6 -1 6 C-0.67 4.02 -0.34 2.04 0 0 Z " fill="#18FDFD" transform="translate(221,200)"/>
<path d="M0 0 C0.33 0 0.66 0 1 0 C1 6.93 1 13.86 1 21 C2.65 20.34 4.3 19.68 6 19 C5.67 18.67 5.34 18.34 5 18 C5.4375 15.9375 5.4375 15.9375 6 14 C6.99 14.33 7.98 14.66 9 15 C9.33 14.34 9.66 13.68 10 13 C10.33 13.99 10.66 14.98 11 16 C11.99 16.33 12.98 16.66 14 17 C14.33 17.99 14.66 18.98 15 20 C16.65 19.34 18.3 18.68 20 18 C20.66 19.32 21.32 20.64 22 22 C22 16.72 22 11.44 22 6 C22.33 6 22.66 6 23 6 C23 25.14 23 44.28 23 64 C22.67 64 22.34 64 22 64 C21.505 59.05 21.505 59.05 21 54 C20.34 54 19.68 54 19 54 C18.67 54.66 18.34 55.32 18 56 C17.01 55.01 16.02 54.02 15 53 C14.01 53.99 13.02 54.98 12 56 C11.34 55.67 10.68 55.34 10 55 C8.515 55.495 8.515 55.495 7 56 C5.515 56.495 5.515 56.495 4 57 C2 56 2 56 1 55 C1 60.28 1 65.56 1 71 C0.67 71 0.34 71 0 71 C0 47.57 0 24.14 0 0 Z " fill="#61FFFF" transform="translate(70,115)"/>
<path d="M0 0 C0.33 0 0.66 0 1 0 C1 14.19 1 28.38 1 43 C4.0745356 42.2236068 4.0745356 42.2236068 6 40 C6 40.66 6 41.32 6 42 C8.31 42.33 10.62 42.66 13 43 C13.33 41.35 13.66 39.7 14 38 C15.65 38 17.3 38 19 38 C19 39.32 19 40.64 19 42 C19.66 42 20.32 42 21 42 C21.33 30.12 21.66 18.24 22 6 C22.33 6 22.66 6 23 6 C23 25.14 23 44.28 23 64 C22.67 64 22.34 64 22 64 C21.505 59.05 21.505 59.05 21 54 C20.34 54 19.68 54 19 54 C18.67 54.66 18.34 55.32 18 56 C17.01 55.01 16.02 54.02 15 53 C14.01 53.99 13.02 54.98 12 56 C11.34 55.67 10.68 55.34 10 55 C8.515 55.495 8.515 55.495 7 56 C5.515 56.495 5.515 56.495 4 57 C2 56 2 56 1 55 C1 60.28 1 65.56 1 71 C0.67 71 0.34 71 0 71 C0 47.57 0 24.14 0 0 Z " fill="#51F6F6" transform="translate(70,115)"/>
<path d="M0 0 C0.33 0 0.66 0 1 0 C1 23.43 1 46.86 1 71 C0.67 71 0.34 71 0 71 C-0.33 67.04 -0.66 63.08 -1 59 C-2.32 59 -3.64 59 -5 59 C-5.33 58.34 -5.66 57.68 -6 57 C-6.66 57.99 -7.32 58.98 -8 60 C-10 59 -10 59 -11 58 C-11 59.32 -11 60.64 -11 62 C-12.485 61.505 -12.485 61.505 -14 61 C-14.33 60.34 -14.66 59.68 -15 59 C-16.8253125 59.185625 -16.8253125 59.185625 -18.6875 59.375 C-20.90625 59.390625 -20.90625 59.390625 -23 59 C-25.6875 56.125 -25.6875 56.125 -28 53 C-30.6514482 51.60180488 -30.6514482 51.60180488 -33 51 C-31.68 50.01 -30.36 49.02 -29 48 C-29.33 46.35 -29.66 44.7 -30 43 C-28.68 43 -27.36 43 -26 43 C-26.0825 43.7425 -26.165 44.485 -26.25 45.25 C-25.92894816 48.78157027 -24.64734383 49.76630364 -22 52 C-22.66 52 -23.32 52 -24 52 C-24 52.99 -24 53.98 -24 55 C-21.56282742 54.72965366 -21.56282742 54.72965366 -19 54 C-18.34 53.01 -17.68 52.02 -17 51 C-16.01 51 -15.02 51 -14 51 C-13.34 51.66 -12.68 52.32 -12 53 C-8.9254644 52.2236068 -8.9254644 52.2236068 -7 50 C-6.5875 50.45375 -6.175 50.9075 -5.75 51.375 C-3.80980814 53.32917823 -3.80980814 53.32917823 0 55 C0 36.85 0 18.7 0 0 Z " fill="#4BF3F3" transform="translate(229,115)"/>
<path d="M0 0 C0.53316582 0.72912346 0.53316582 0.72912346 1.07710266 1.47297668 C3.91528074 3.72684849 6.17443532 3.40012958 9.76635742 3.43237305 C10.44954544 3.4425647 11.13273346 3.45275635 11.83662415 3.46325684 C14.09298861 3.49343178 16.34892887 3.5026592 18.60546875 3.51171875 C20.17061275 3.52856219 21.7357432 3.54671198 23.30085754 3.56611633 C27.41897343 3.61365927 31.53703438 3.64344064 35.65533447 3.66955566 C39.85822402 3.69933968 44.06092414 3.74587736 48.26367188 3.79101562 C56.50902162 3.87709751 64.75438851 3.94442083 73 4 C73 4.33 73 4.66 73 5 C63.84637816 5.02319943 54.69276649 5.04095382 45.53912163 5.05181217 C41.28844029 5.05702437 37.03777911 5.06409179 32.78710938 5.07543945 C28.68279956 5.08632746 24.57850909 5.09228936 20.47418594 5.09487724 C18.91055115 5.09672084 17.34691739 5.1003209 15.78329086 5.10573006 C13.58841435 5.11301901 11.3936172 5.11398764 9.19873047 5.11352539 C7.95074677 5.115746 6.70276306 5.11796661 5.41696167 5.12025452 C2.18655395 5.00656547 -0.83007826 4.61271396 -4 4 C-2.68 2.68 -1.36 1.36 0 0 Z " fill="#0EDFDF" transform="translate(113,225)"/>
<path d="M0 0 C8.25 0 16.5 0 25 0 C25 0.66 25 1.32 25 2 C23.35 2 21.7 2 20 2 C20.33 3.65 20.66 5.3 21 7 C13.87352969 5.29977612 6.9165788 3.42080258 0 1 C0 0.67 0 0.34 0 0 Z " fill="#5EEFEF" transform="translate(110,139)"/>
<path d="M0 0 C2 1 2 1 5 3 C5.391875 2.484375 5.78375 1.96875 6.1875 1.4375 C6.785625 0.963125 7.38375 0.48875 8 0 C10.6875 0.3125 10.6875 0.3125 13 1 C12.67 1.66 12.34 2.32 12 3 C11.01 3 10.02 3 9 3 C9.33 3.99 9.66 4.98 10 6 C10.66 6.33 11.32 6.66 12 7 C12 7.66 12 8.32 12 9 C10.06077578 8.54901762 8.12366406 8.08894441 6.1875 7.625 C5.10855469 7.36976563 4.02960938 7.11453125 2.91796875 6.8515625 C0 6 0 6 -3 4 C-2.34 3.67 -1.68 3.34 -1 3 C-0.67 2.01 -0.34 1.02 0 0 Z " fill="#52EFEF" transform="translate(159,149)"/>
<path d="M0 0 C1.15957207 3.47871621 0.77456651 4.34219645 -0.4375 7.6875 C-0.72496094 8.49574219 -1.01242188 9.30398437 -1.30859375 10.13671875 C-1.53675781 10.75160156 -1.76492187 11.36648437 -2 12 C-1.34 12 -0.68 12 0 12 C0.33 11.34 0.66 10.68 1 10 C1 10.99 1 11.98 1 13 C0.34 13 -0.32 13 -1 13 C-1.33 14.65 -1.66 16.3 -2 18 C-3.65 18 -5.3 18 -7 18 C-5.79662881 11.10796502 -3.67864914 5.93919307 0 0 Z " fill="#7FEFEF" transform="translate(78,94)"/>
<path d="M0 0 C0.33 0.99 0.66 1.98 1 3 C1.66 3.33 2.32 3.66 3 4 C2.67 4.66 2.34 5.32 2 6 C-3.9129304 5.35729017 -9.34244531 3.80996216 -15 2 C-14.37738281 1.84660156 -13.75476563 1.69320312 -13.11328125 1.53515625 C-11.7960773 1.20159444 -10.48522439 0.84024205 -9.1875 0.4375 C-6.11495812 -0.17700838 -3.12323592 -0.06006223 0 0 Z " fill="#4BEBEB" transform="translate(194,159)"/>
<path d="M0 0 C0.66 0.33 1.32 0.66 2 1 C1.67 1.66 1.34 2.32 1 3 C0.34 3 -0.32 3 -1 3 C-1.33 4.98 -1.66 6.96 -2 9 C-3.32 8.34 -4.64 7.68 -6 7 C-5.01 7 -4.02 7 -3 7 C-3 6.34 -3 5.68 -3 5 C-4.98 5.33 -6.96 5.66 -9 6 C-8.67 6.99 -8.34 7.98 -8 9 C-8.66 9.66 -9.32 10.32 -10 11 C-10 10.01 -10 9.02 -10 8 C-10.66 8 -11.32 8 -12 8 C-11 5 -11 5 -8.56640625 3.578125 C-7.57511719 3.13984375 -6.58382812 2.7015625 -5.5625 2.25 C-4.57378906 1.80140625 -3.58507812 1.3528125 -2.56640625 0.890625 C-1.29603516 0.44976562 -1.29603516 0.44976562 0 0 Z " fill="#9AF0F0" transform="translate(106,72)"/>
<path d="M0 0 C0.66 0 1.32 0 2 0 C5.06517632 6.97890428 5.06517632 6.97890428 4.8125 10.9375 C4 13 4 13 2 14 C1.06576355 10.98968256 0.95550089 10.13349732 2 7 C1.071875 7.309375 1.071875 7.309375 0.125 7.625 C-0.57625 7.74875 -1.2775 7.8725 -2 8 C-2.66 7.34 -3.32 6.68 -4 6 C-3.01 6 -2.02 6 -1 6 C-1 4.68 -1 3.36 -1 2 C-0.67 1.34 -0.34 0.68 0 0 Z " fill="#7FF1F1" transform="translate(224,101)"/>
<path d="M0 0 C-10.37357631 7.66742597 -10.37357631 7.66742597 -16 9 C-15.67 7.35 -15.34 5.7 -15 4 C-13.88625 3.896875 -12.7725 3.79375 -11.625 3.6875 C-10.42875 3.460625 -9.2325 3.23375 -8 3 C-7.34 2.01 -6.68 1.02 -6 0 C-3 -1 -3 -1 0 0 Z " fill="#16EFEF" transform="translate(213,217)"/>
<path d="M0 0 C1.94268841 2.91403262 3.46395304 5.85808576 5 9 C1.7 8.67 -1.6 8.34 -5 8 C-2.25 2.25 -2.25 2.25 0 0 Z " fill="#32F2F2" transform="translate(94,187)"/>
<path d="M0 0 C0.33 0 0.66 0 1 0 C1 1.98 1 3.96 1 6 C3.31 5.34 5.62 4.68 8 4 C7.67 5.32 7.34 6.64 7 8 C7.99 8.33 8.98 8.66 10 9 C5.13103697 8.40380045 0.67209049 7.43023178 -4 6 C-3.01 5.34 -2.02 4.68 -1 4 C-0.27617533 1.94074861 -0.27617533 1.94074861 0 0 Z " fill="#54E3E3" transform="translate(136,141)"/>
<path d="M0 0 C2.375 0.1875 2.375 0.1875 5 1 C6.3125 3.5625 6.3125 3.5625 7 6 C4.6568787 5.74438677 2.32156597 5.40729228 0 5 C-0.33 4.34 -0.66 3.68 -1 3 C-0.67 2.01 -0.34 1.02 0 0 Z " fill="#86F1F1" transform="translate(218,94)"/>
</svg>
